<?xml version="1.0" encoding="iso-8859-1"?>
<!-- Generator: Adobe Illustrator 19.0.0, SVG Export Plug-In . SVG Version: 6.00 Build 0)  -->
<svg version="1.1" id="Layer_1" xmlns="http://www.w3.org/2000/svg" xmlns:xlink="http://www.w3.org/1999/xlink" x="0px" y="0px"
	 viewBox="0 0 512 512" style="enable-background:new 0 0 512 512;" xml:space="preserve">
<g>
	<g>
		<path d="M256,0C114.843,0,0,114.843,0,256c0,141.157,114.843,256,256,256s256-114.843,256-256C512,114.843,397.157,0,256,0z
			 M256,493.037C125.296,493.037,18.963,386.704,18.963,256C18.963,125.296,125.296,18.963,256,18.963S493.037,125.296,493.037,256
			C493.037,386.704,386.704,493.037,256,493.037z"/>
	</g>
</g>
<g>
	<g>
		<path d="M196.333,173.445c-3.704-3.704-9.704-3.704-13.407,0L145,211.37c-3.704,3.704-3.704,9.704,0,13.408
			c1.852,1.852,4.278,2.778,6.704,2.778c2.426,0,4.852-0.926,6.704-2.778l37.926-37.926
			C200.037,183.148,200.037,177.148,196.333,173.445z"/>
	</g>
</g>
<g>
	<g>
		<path d="M348.037,211.37l-37.926-37.926c-3.704-3.704-9.704-3.704-13.407,0c-3.704,3.704-3.704,9.704,0,13.408l37.926,37.926
			c1.852,1.852,4.278,2.778,6.704,2.778c2.426,0,4.852-0.926,6.704-2.778C351.741,221.074,351.741,215.074,348.037,211.37z"/>
	</g>
</g>
<g>
	<g>
		<path d="M303.407,274.963c-41.824,0-75.852,34.028-75.852,75.852c0,41.824,34.028,75.852,75.852,75.852
			s75.852-34.028,75.852-75.852C379.259,308.991,345.231,274.963,303.407,274.963z M303.407,407.704
			c-31.37,0-56.889-25.518-56.889-56.889c0-31.37,25.518-56.889,56.889-56.889s56.889,25.519,56.889,56.889
			C360.296,382.185,334.778,407.704,303.407,407.704z"/>
	</g>
</g>
<g>
</g>
<g>
</g>
<g>
</g>
<g>
</g>
<g>
</g>
<g>
</g>
<g>
</g>
<g>
</g>
<g>
</g>
<g>
</g>
<g>
</g>
<g>
</g>
<g>
</g>
<g>
</g>
<g>
</g>
</svg>
